<svg width="759" height="230" viewBox="0 0 759 230" fill="none" xmlns="http://www.w3.org/2000/svg">
<path fill-rule="evenodd" clip-rule="evenodd" d="M209.49 121.88C201.53 172.13 157.84 210.79 105.4 210.79H104.09L112.94 204.66C157.82 201.94 194.55 169.22 202.65 126.22L209.49 121.88Z" fill="#244ED5"/>
<path fill-rule="evenodd" clip-rule="evenodd" d="M105.4 0C155.59 0 197.76 35.38 208.27 82.46H208.2L202.49 84.94C193.03 40.05 153.05 6.18 105.41 6.18C50.75 6.18 6.18 50.75 6.18 105.4C6.18 146.95 31.96 182.67 68.35 197.4L63.98 202.39C27.59 187.06 0.09 148.73 0 105.41C0 47.35 47.35 0 105.4 0Z" fill="#244ED5"/>
<path fill-rule="evenodd" clip-rule="evenodd" d="M127.44 100.34C127.16 96.09 126.6 93.96 125.52 89.79C117.7 59.7 94.5699 42.46 56.1599 48.59C90.4799 7.54993 157.13 29.89 171.86 74.85C175.31 85.36 175.87 93.26 174.49 105.11C158.91 108.25 142.52 103.68 127.44 100.34Z" fill="#244ED5"/>
<path fill-rule="evenodd" clip-rule="evenodd" d="M55.75 229.91C81.47 204.4 109.78 171.92 120.84 136.73C130.09 137.33 158.77 132.9 167.22 128.53C148.77 166.53 101.75 201.14 55.75 229.91Z" fill="#244ED5"/>
<path fill-rule="evenodd" clip-rule="evenodd" d="M57.8901 120.95C47.5801 133 64.1401 116.71 86.1401 127.15C108.46 137.73 177.28 133.46 227.02 92C170.64 121.9 145.66 108.2 121.68 103.8C100.77 99.97 81.5801 96.12 57.8901 120.95Z" fill="#244ED5"/>
<path d="M269.904 85.432C274.341 85.432 278.309 86.4347 281.808 88.44C285.349 90.4027 288.123 93.1547 290.128 96.696C292.133 100.195 293.136 104.163 293.136 108.6C293.136 113.037 292.133 117.027 290.128 120.568C288.123 124.067 285.349 126.819 281.808 128.824C278.309 130.787 274.341 131.768 269.904 131.768C265.936 131.768 262.352 131.085 259.152 129.72C255.995 128.355 253.349 126.371 251.216 123.768L257.808 117.624C260.965 121.165 264.827 122.936 269.392 122.936C272.677 122.936 275.451 121.976 277.712 120.056C280.016 118.136 281.509 115.555 282.192 112.312H264.016V104.376H282.064C281.339 101.304 279.845 98.8507 277.584 97.016C275.323 95.1813 272.592 94.264 269.392 94.264C264.827 94.264 260.965 96.0347 257.808 99.576L251.216 93.432C253.349 90.8293 255.995 88.8453 259.152 87.48C262.352 86.1147 265.936 85.432 269.904 85.432ZM332.808 94.648H311.496L311.56 131H301.256V86.2H332.872L332.808 94.648ZM339.193 86.2H349.497V115.384L370.873 86.2H380.601V131H370.361V101.88L348.985 131H339.193V86.2ZM437.651 122.552V140.28H428.051V131H396.435V140.28H386.835L386.899 122.552H388.691C391.379 122.467 393.278 120.504 394.387 116.664C395.496 112.824 396.179 107.341 396.435 100.216L396.947 86.2H431.379V122.552H437.651ZM405.587 101.176C405.374 106.509 404.926 110.989 404.243 114.616C403.56 118.2 402.515 120.845 401.107 122.552H421.139V94.648H405.779L405.587 101.176ZM475.342 121.4H454.542L450.574 131H439.95L459.918 86.2H470.158L490.19 131H479.31L475.342 121.4ZM472.078 113.528L464.974 96.376L457.87 113.528H472.078ZM492.391 108.984H510.503V116.984H492.391V108.984ZM540.944 131.768C536.293 131.768 532.091 130.765 528.336 128.76C524.624 126.755 521.701 124.003 519.568 120.504C517.477 116.963 516.432 112.995 516.432 108.6C516.432 104.205 517.477 100.259 519.568 96.76C521.701 93.2187 524.624 90.4453 528.336 88.44C532.091 86.4347 536.293 85.432 540.944 85.432C545.595 85.432 549.776 86.4347 553.488 88.44C557.2 90.4453 560.123 93.2187 562.256 96.76C564.389 100.259 565.456 104.205 565.456 108.6C565.456 112.995 564.389 116.963 562.256 120.504C560.123 124.003 557.2 126.755 553.488 128.76C549.776 130.765 545.595 131.768 540.944 131.768ZM540.944 122.936C543.589 122.936 545.979 122.339 548.112 121.144C550.245 119.907 551.909 118.2 553.104 116.024C554.341 113.848 554.96 111.373 554.96 108.6C554.96 105.827 554.341 103.352 553.104 101.176C551.909 99 550.245 97.3147 548.112 96.12C545.979 94.8827 543.589 94.264 540.944 94.264C538.299 94.264 535.909 94.8827 533.776 96.12C531.643 97.3147 529.957 99 528.72 101.176C527.525 103.352 526.928 105.827 526.928 108.6C526.928 111.373 527.525 113.848 528.72 116.024C529.957 118.2 531.643 119.907 533.776 121.144C535.909 122.339 538.299 122.936 540.944 122.936ZM607.058 94.648H592.722V131H582.482V94.648H568.21V86.2H607.058V94.648ZM648.256 122.68V131H613.568V86.2H647.424V94.52H623.872V104.248H644.672V112.312H623.872V122.68H648.256ZM696.567 86.2V131H686.326V94.648H670.967L670.647 103.992C670.433 110.349 669.921 115.512 669.111 119.48C668.3 123.405 666.935 126.435 665.015 128.568C663.137 130.659 660.492 131.704 657.079 131.704C655.671 131.704 653.964 131.469 651.959 131L652.599 122.232C653.153 122.403 653.772 122.488 654.455 122.488C656.929 122.488 658.657 121.037 659.639 118.136C660.62 115.192 661.239 110.605 661.495 104.376L662.135 86.2H696.567ZM729.452 100.92C734.913 100.92 739.094 102.136 741.996 104.568C744.94 107 746.412 110.605 746.412 115.384C746.412 120.461 744.79 124.344 741.548 127.032C738.348 129.677 733.825 131 727.98 131H707.756V86.2H718.06V100.92H729.452ZM727.404 123.32C730.092 123.32 732.182 122.659 733.676 121.336C735.212 120.013 735.979 118.093 735.979 115.576C735.979 110.925 733.121 108.6 727.404 108.6H718.06V123.32H727.404Z" fill="#244ED5"/>
</svg>
