<svg width="759" height="230" viewBox="0 0 759 230" fill="none" xmlns="http://www.w3.org/2000/svg">
<path fill-rule="evenodd" clip-rule="evenodd" d="M209.49 121.88C201.53 172.13 157.84 210.79 105.4 210.79H104.09L112.94 204.66C157.82 201.94 194.55 169.22 202.65 126.22L209.49 121.88Z" fill="#244ED5"/>
<path fill-rule="evenodd" clip-rule="evenodd" d="M105.4 0C155.59 0 197.76 35.38 208.27 82.46H208.2L202.49 84.94C193.03 40.05 153.05 6.18 105.41 6.18C50.75 6.18 6.18 50.75 6.18 105.4C6.18 146.95 31.96 182.67 68.35 197.4L63.98 202.39C27.59 187.06 0.09 148.73 0 105.41C0 47.35 47.35 0 105.4 0Z" fill="#244ED5"/>
<path fill-rule="evenodd" clip-rule="evenodd" d="M127.44 100.34C127.16 96.09 126.6 93.96 125.52 89.79C117.7 59.7 94.57 42.46 56.16 48.59C90.48 7.54993 157.13 29.89 171.86 74.85C175.31 85.36 175.87 93.26 174.49 105.11C158.91 108.25 142.52 103.68 127.44 100.34Z" fill="#244ED5"/>
<path fill-rule="evenodd" clip-rule="evenodd" d="M55.75 229.91C81.47 204.4 109.78 171.92 120.84 136.73C130.09 137.33 158.77 132.9 167.22 128.53C148.77 166.53 101.75 201.14 55.75 229.91Z" fill="#244ED5"/>
<path fill-rule="evenodd" clip-rule="evenodd" d="M57.89 120.95C47.58 133 64.14 116.71 86.14 127.15C108.46 137.73 177.28 133.46 227.02 92C170.64 121.9 145.66 108.2 121.68 103.8C100.77 99.97 81.58 96.12 57.89 120.95Z" fill="#244ED5"/>
<path d="M269.904 35.432C274.341 35.432 278.309 36.4347 281.808 38.44C285.349 40.4027 288.123 43.1547 290.128 46.696C292.133 50.1947 293.136 54.1627 293.136 58.6C293.136 63.0373 292.133 67.0267 290.128 70.568C288.123 74.0667 285.349 76.8187 281.808 78.824C278.309 80.7867 274.341 81.768 269.904 81.768C265.936 81.768 262.352 81.0853 259.152 79.72C255.995 78.3547 253.349 76.3707 251.216 73.768L257.808 67.624C260.965 71.1653 264.827 72.936 269.392 72.936C272.677 72.936 275.451 71.976 277.712 70.056C280.016 68.136 281.509 65.5547 282.192 62.312H264.016V54.376H282.064C281.339 51.304 279.845 48.8507 277.584 47.016C275.323 45.1813 272.592 44.264 269.392 44.264C264.827 44.264 260.965 46.0347 257.808 49.576L251.216 43.432C253.349 40.8293 255.995 38.8453 259.152 37.48C262.352 36.1147 265.936 35.432 269.904 35.432ZM332.808 44.648H311.496L311.56 81H301.256V36.2H332.872L332.808 44.648ZM339.193 36.2H349.497V65.384L370.873 36.2H380.601V81H370.361V51.88L348.985 81H339.193V36.2ZM437.651 72.552V90.28H428.051V81H396.435V90.28H386.835L386.899 72.552H388.691C391.379 72.4667 393.278 70.504 394.387 66.664C395.496 62.824 396.179 57.3413 396.435 50.216L396.947 36.2H431.379V72.552H437.651ZM405.587 51.176C405.374 56.5093 404.926 60.9893 404.243 64.616C403.56 68.2 402.515 70.8453 401.107 72.552H421.139V44.648H405.779L405.587 51.176ZM475.342 71.4H454.542L450.574 81H439.95L459.918 36.2H470.158L490.19 81H479.31L475.342 71.4ZM472.078 63.528L464.974 46.376L457.87 63.528H472.078ZM492.391 58.984H510.503V66.984H492.391V58.984ZM540.944 81.768C536.293 81.768 532.091 80.7653 528.336 78.76C524.624 76.7547 521.701 74.0027 519.568 70.504C517.477 66.9627 516.432 62.9947 516.432 58.6C516.432 54.2053 517.477 50.2587 519.568 46.76C521.701 43.2187 524.624 40.4453 528.336 38.44C532.091 36.4347 536.293 35.432 540.944 35.432C545.595 35.432 549.776 36.4347 553.488 38.44C557.2 40.4453 560.123 43.2187 562.256 46.76C564.389 50.2587 565.456 54.2053 565.456 58.6C565.456 62.9947 564.389 66.9627 562.256 70.504C560.123 74.0027 557.2 76.7547 553.488 78.76C549.776 80.7653 545.595 81.768 540.944 81.768ZM540.944 72.936C543.589 72.936 545.979 72.3387 548.112 71.144C550.245 69.9067 551.909 68.2 553.104 66.024C554.341 63.848 554.96 61.3733 554.96 58.6C554.96 55.8267 554.341 53.352 553.104 51.176C551.909 49 550.245 47.3147 548.112 46.12C545.979 44.8827 543.589 44.264 540.944 44.264C538.299 44.264 535.909 44.8827 533.776 46.12C531.643 47.3147 529.957 49 528.72 51.176C527.525 53.352 526.928 55.8267 526.928 58.6C526.928 61.3733 527.525 63.848 528.72 66.024C529.957 68.2 531.643 69.9067 533.776 71.144C535.909 72.3387 538.299 72.936 540.944 72.936ZM607.058 44.648H592.722V81H582.482V44.648H568.21V36.2H607.058V44.648ZM648.256 72.68V81H613.568V36.2H647.424V44.52H623.872V54.248H644.672V62.312H623.872V72.68H648.256ZM696.567 36.2V81H686.326V44.648H670.967L670.647 53.992C670.433 60.3493 669.921 65.512 669.111 69.48C668.3 73.4053 666.935 76.4347 665.015 78.568C663.137 80.6587 660.492 81.704 657.079 81.704C655.671 81.704 653.964 81.4693 651.959 81L652.599 72.232C653.153 72.4027 653.772 72.488 654.455 72.488C656.929 72.488 658.657 71.0373 659.639 68.136C660.62 65.192 661.239 60.6053 661.495 54.376L662.135 36.2H696.567ZM729.452 50.92C734.913 50.92 739.094 52.136 741.996 54.568C744.94 57 746.412 60.6053 746.412 65.384C746.412 70.4613 744.79 74.344 741.548 77.032C738.348 79.6773 733.825 81 727.98 81H707.756V36.2H718.06V50.92H729.452ZM727.404 73.32C730.092 73.32 732.182 72.6587 733.676 71.336C735.212 70.0133 735.979 68.0933 735.979 65.576C735.979 60.9253 733.121 58.6 727.404 58.6H718.06V73.32H727.404Z" fill="#244ED5"/>
<path d="M275.65 116.2V140H270.176V120.688H259.432V140H253.958V116.2H275.65ZM291.92 121.436C293.62 121.436 295.161 121.833 296.544 122.626C297.949 123.397 299.048 124.496 299.842 125.924C300.635 127.329 301.032 128.973 301.032 130.854C301.032 132.735 300.635 134.39 299.842 135.818C299.048 137.223 297.949 138.323 296.544 139.116C295.161 139.887 293.62 140.272 291.92 140.272C289.585 140.272 287.749 139.535 286.412 138.062V146.596H281.108V121.708H286.174V123.816C287.488 122.229 289.404 121.436 291.92 121.436ZM291.002 135.92C292.362 135.92 293.472 135.467 294.334 134.56C295.218 133.631 295.66 132.395 295.66 130.854C295.66 129.313 295.218 128.089 294.334 127.182C293.472 126.253 292.362 125.788 291.002 125.788C289.642 125.788 288.52 126.253 287.636 127.182C286.774 128.089 286.344 129.313 286.344 130.854C286.344 132.395 286.774 133.631 287.636 134.56C288.52 135.467 289.642 135.92 291.002 135.92ZM322.531 130.922C322.531 130.99 322.497 131.466 322.429 132.35H308.591C308.841 133.483 309.43 134.379 310.359 135.036C311.289 135.693 312.445 136.022 313.827 136.022C314.779 136.022 315.618 135.886 316.343 135.614C317.091 135.319 317.783 134.866 318.417 134.254L321.239 137.314C319.517 139.286 317.001 140.272 313.691 140.272C311.629 140.272 309.804 139.875 308.217 139.082C306.631 138.266 305.407 137.144 304.545 135.716C303.684 134.288 303.253 132.667 303.253 130.854C303.253 129.063 303.673 127.454 304.511 126.026C305.373 124.575 306.54 123.453 308.013 122.66C309.509 121.844 311.175 121.436 313.011 121.436C314.802 121.436 316.423 121.821 317.873 122.592C319.324 123.363 320.457 124.473 321.273 125.924C322.112 127.352 322.531 129.018 322.531 130.922ZM313.045 125.448C311.844 125.448 310.835 125.788 310.019 126.468C309.203 127.148 308.705 128.077 308.523 129.256H317.533C317.352 128.1 316.853 127.182 316.037 126.502C315.221 125.799 314.224 125.448 313.045 125.448ZM346.933 135.648V143.944H342.003V140H329.151V143.944H324.221V135.648H324.969C326.102 135.625 326.884 134.957 327.315 133.642C327.746 132.327 328.018 130.457 328.131 128.032L328.369 121.708H344.315V135.648H346.933ZM332.925 128.406C332.857 130.265 332.71 131.783 332.483 132.962C332.279 134.141 331.882 135.036 331.293 135.648H339.011V126.06H333.027L332.925 128.406ZM368.461 121.708V140H363.157V126.06H355.541V140H350.271V121.708H368.461ZM384.324 121.436C386.024 121.436 387.565 121.833 388.948 122.626C390.353 123.397 391.453 124.496 392.246 125.924C393.039 127.329 393.436 128.973 393.436 130.854C393.436 132.735 393.039 134.39 392.246 135.818C391.453 137.223 390.353 138.323 388.948 139.116C387.565 139.887 386.024 140.272 384.324 140.272C381.989 140.272 380.153 139.535 378.816 138.062V146.596H373.512V121.708H378.578V123.816C379.893 122.229 381.808 121.436 384.324 121.436ZM383.406 135.92C384.766 135.92 385.877 135.467 386.738 134.56C387.622 133.631 388.064 132.395 388.064 130.854C388.064 129.313 387.622 128.089 386.738 127.182C385.877 126.253 384.766 125.788 383.406 125.788C382.046 125.788 380.924 126.253 380.04 127.182C379.179 128.089 378.748 129.313 378.748 130.854C378.748 132.395 379.179 133.631 380.04 134.56C380.924 135.467 382.046 135.92 383.406 135.92ZM397.154 121.708H402.424V132.588L411.332 121.708H416.194V140H410.924V129.12L402.05 140H397.154V121.708ZM437.544 121.708V140H432.818V134.764H428.908L425.44 140H419.796L423.978 134.016C422.709 133.517 421.734 132.803 421.054 131.874C420.397 130.922 420.068 129.777 420.068 128.44C420.068 126.287 420.839 124.632 422.38 123.476C423.944 122.297 426.086 121.708 428.806 121.708H437.544ZM428.908 126.026C427.775 126.026 426.914 126.23 426.324 126.638C425.758 127.046 425.474 127.703 425.474 128.61C425.474 129.517 425.746 130.185 426.29 130.616C426.857 131.024 427.707 131.228 428.84 131.228H432.818V126.026H428.908ZM458.01 126.06H451.822V140H446.552V126.06H440.364V121.708H458.01V126.06ZM460.837 121.708H466.107V132.588L475.015 121.708H479.877V140H474.607V129.12L465.733 140H460.837V121.708ZM502.758 130.922C502.758 130.99 502.724 131.466 502.656 132.35H488.818C489.067 133.483 489.656 134.379 490.586 135.036C491.515 135.693 492.671 136.022 494.054 136.022C495.006 136.022 495.844 135.886 496.57 135.614C497.318 135.319 498.009 134.866 498.644 134.254L501.466 137.314C499.743 139.286 497.227 140.272 493.918 140.272C491.855 140.272 490.03 139.875 488.444 139.082C486.857 138.266 485.633 137.144 484.772 135.716C483.91 134.288 483.48 132.667 483.48 130.854C483.48 129.063 483.899 127.454 484.738 126.026C485.599 124.575 486.766 123.453 488.24 122.66C489.736 121.844 491.402 121.436 493.238 121.436C495.028 121.436 496.649 121.821 498.1 122.592C499.55 123.363 500.684 124.473 501.5 125.924C502.338 127.352 502.758 129.018 502.758 130.922ZM493.272 125.448C492.07 125.448 491.062 125.788 490.246 126.468C489.43 127.148 488.931 128.077 488.75 129.256H497.76C497.578 128.1 497.08 127.182 496.264 126.502C495.448 125.799 494.45 125.448 493.272 125.448ZM261.608 174.064H258.854V181H253.55V162.708H258.854V169.814H261.71L266.674 162.708H272.318L265.926 171.48L272.76 181H266.504L261.608 174.064ZM283.368 181.272C281.441 181.272 279.707 180.875 278.166 180.082C276.647 179.266 275.457 178.144 274.596 176.716C273.735 175.288 273.304 173.667 273.304 171.854C273.304 170.041 273.735 168.42 274.596 166.992C275.457 165.564 276.647 164.453 278.166 163.66C279.707 162.844 281.441 162.436 283.368 162.436C285.295 162.436 287.017 162.844 288.536 163.66C290.055 164.453 291.245 165.564 292.106 166.992C292.967 168.42 293.398 170.041 293.398 171.854C293.398 173.667 292.967 175.288 292.106 176.716C291.245 178.144 290.055 179.266 288.536 180.082C287.017 180.875 285.295 181.272 283.368 181.272ZM283.368 176.92C284.728 176.92 285.839 176.467 286.7 175.56C287.584 174.631 288.026 173.395 288.026 171.854C288.026 170.313 287.584 169.089 286.7 168.182C285.839 167.253 284.728 166.788 283.368 166.788C282.008 166.788 280.886 167.253 280.002 168.182C279.118 169.089 278.676 170.313 278.676 171.854C278.676 173.395 279.118 174.631 280.002 175.56C280.886 176.467 282.008 176.92 283.368 176.92ZM314.896 181V170.052L309.422 179.232H307.178L301.84 170.018V181H297.046V162.708H302.588L308.436 173.282L314.658 162.708H319.622L319.69 181H314.896ZM342.961 162.708V181H337.657V167.06H330.041V181H324.771V162.708H342.961ZM365.59 162.708V181H360.286V167.06H354.506L354.336 170.29C354.245 172.693 354.019 174.687 353.656 176.274C353.293 177.861 352.704 179.107 351.888 180.014C351.072 180.921 349.939 181.374 348.488 181.374C347.717 181.374 346.799 181.238 345.734 180.966L346.006 176.614C346.369 176.659 346.629 176.682 346.788 176.682C347.581 176.682 348.171 176.399 348.556 175.832C348.964 175.243 349.236 174.506 349.372 173.622C349.508 172.715 349.61 171.525 349.678 170.052L349.95 162.708H365.59ZM388.473 171.922C388.473 171.99 388.439 172.466 388.371 173.35H374.533C374.782 174.483 375.371 175.379 376.301 176.036C377.23 176.693 378.386 177.022 379.769 177.022C380.721 177.022 381.559 176.886 382.285 176.614C383.033 176.319 383.724 175.866 384.359 175.254L387.181 178.314C385.458 180.286 382.942 181.272 379.633 181.272C377.57 181.272 375.745 180.875 374.159 180.082C372.572 179.266 371.348 178.144 370.487 176.716C369.625 175.288 369.195 173.667 369.195 171.854C369.195 170.063 369.614 168.454 370.453 167.026C371.314 165.575 372.481 164.453 373.955 163.66C375.451 162.844 377.117 162.436 378.953 162.436C380.743 162.436 382.364 162.821 383.815 163.592C385.265 164.363 386.399 165.473 387.215 166.924C388.053 168.352 388.473 170.018 388.473 171.922ZM378.987 166.448C377.785 166.448 376.777 166.788 375.961 167.468C375.145 168.148 374.646 169.077 374.465 170.256H383.475C383.293 169.1 382.795 168.182 381.979 167.502C381.163 166.799 380.165 166.448 378.987 166.448ZM400.596 174.064H397.842V181H392.538V162.708H397.842V169.814H400.698L405.662 162.708H411.306L404.914 171.48L411.748 181H405.492L400.596 174.064ZM422.492 181.272C420.543 181.272 418.786 180.875 417.222 180.082C415.681 179.266 414.468 178.144 413.584 176.716C412.723 175.288 412.292 173.667 412.292 171.854C412.292 170.041 412.723 168.42 413.584 166.992C414.468 165.564 415.681 164.453 417.222 163.66C418.786 162.844 420.543 162.436 422.492 162.436C424.419 162.436 426.096 162.844 427.524 163.66C428.975 164.453 430.029 165.598 430.686 167.094L426.572 169.304C425.62 167.627 424.249 166.788 422.458 166.788C421.076 166.788 419.931 167.241 419.024 168.148C418.118 169.055 417.664 170.29 417.664 171.854C417.664 173.418 418.118 174.653 419.024 175.56C419.931 176.467 421.076 176.92 422.458 176.92C424.272 176.92 425.643 176.081 426.572 174.404L430.686 176.648C430.029 178.099 428.975 179.232 427.524 180.048C426.096 180.864 424.419 181.272 422.492 181.272ZM433.909 162.708H439.179V169.848H447.135V162.708H452.439V181H447.135V174.166H439.179V181H433.909V162.708ZM466.085 181.272C464.158 181.272 462.424 180.875 460.883 180.082C459.364 179.266 458.174 178.144 457.313 176.716C456.451 175.288 456.021 173.667 456.021 171.854C456.021 170.041 456.451 168.42 457.313 166.992C458.174 165.564 459.364 164.453 460.883 163.66C462.424 162.844 464.158 162.436 466.085 162.436C468.011 162.436 469.734 162.844 471.253 163.66C472.771 164.453 473.961 165.564 474.823 166.992C475.684 168.42 476.115 170.041 476.115 171.854C476.115 173.667 475.684 175.288 474.823 176.716C473.961 178.144 472.771 179.266 471.253 180.082C469.734 180.875 468.011 181.272 466.085 181.272ZM466.085 176.92C467.445 176.92 468.555 176.467 469.417 175.56C470.301 174.631 470.743 173.395 470.743 171.854C470.743 170.313 470.301 169.089 469.417 168.182C468.555 167.253 467.445 166.788 466.085 166.788C464.725 166.788 463.603 167.253 462.719 168.182C461.835 169.089 461.393 170.313 461.393 171.854C461.393 173.395 461.835 174.631 462.719 175.56C463.603 176.467 464.725 176.92 466.085 176.92ZM494.417 167.06H485.033V181H479.763V162.708H494.417V167.06ZM505.032 181.272C503.105 181.272 501.371 180.875 499.83 180.082C498.311 179.266 497.121 178.144 496.26 176.716C495.399 175.288 494.968 173.667 494.968 171.854C494.968 170.041 495.399 168.42 496.26 166.992C497.121 165.564 498.311 164.453 499.83 163.66C501.371 162.844 503.105 162.436 505.032 162.436C506.959 162.436 508.681 162.844 510.2 163.66C511.719 164.453 512.909 165.564 513.77 166.992C514.631 168.42 515.062 170.041 515.062 171.854C515.062 173.667 514.631 175.288 513.77 176.716C512.909 178.144 511.719 179.266 510.2 180.082C508.681 180.875 506.959 181.272 505.032 181.272ZM505.032 176.92C506.392 176.92 507.503 176.467 508.364 175.56C509.248 174.631 509.69 173.395 509.69 171.854C509.69 170.313 509.248 169.089 508.364 168.182C507.503 167.253 506.392 166.788 505.032 166.788C503.672 166.788 502.55 167.253 501.666 168.182C500.782 169.089 500.34 170.313 500.34 171.854C500.34 173.395 500.782 174.631 501.666 175.56C502.55 176.467 503.672 176.92 505.032 176.92ZM537.043 181.272C535.094 181.272 533.337 180.875 531.773 180.082C530.232 179.266 529.019 178.144 528.135 176.716C527.274 175.288 526.843 173.667 526.843 171.854C526.843 170.041 527.274 168.42 528.135 166.992C529.019 165.564 530.232 164.453 531.773 163.66C533.337 162.844 535.094 162.436 537.043 162.436C538.97 162.436 540.647 162.844 542.075 163.66C543.526 164.453 544.58 165.598 545.237 167.094L541.123 169.304C540.171 167.627 538.8 166.788 537.009 166.788C535.626 166.788 534.482 167.241 533.575 168.148C532.668 169.055 532.215 170.29 532.215 171.854C532.215 173.418 532.668 174.653 533.575 175.56C534.482 176.467 535.626 176.92 537.009 176.92C538.822 176.92 540.194 176.081 541.123 174.404L545.237 176.648C544.58 178.099 543.526 179.232 542.075 180.048C540.647 180.864 538.97 181.272 537.043 181.272ZM548.46 162.708H553.73V169.848H561.686V162.708H566.99V181H561.686V174.166H553.73V181H548.46V162.708ZM579.174 162.436C582.007 162.436 584.183 163.116 585.702 164.476C587.22 165.813 587.98 167.842 587.98 170.562V181H583.016V178.722C582.018 180.422 580.16 181.272 577.44 181.272C576.034 181.272 574.81 181.034 573.768 180.558C572.748 180.082 571.966 179.425 571.422 178.586C570.878 177.747 570.606 176.795 570.606 175.73C570.606 174.03 571.24 172.693 572.51 171.718C573.802 170.743 575.785 170.256 578.46 170.256H582.676C582.676 169.1 582.324 168.216 581.622 167.604C580.919 166.969 579.865 166.652 578.46 166.652C577.485 166.652 576.522 166.811 575.57 167.128C574.64 167.423 573.847 167.831 573.19 168.352L571.286 164.646C572.283 163.943 573.473 163.399 574.856 163.014C576.261 162.629 577.7 162.436 579.174 162.436ZM578.766 177.702C579.672 177.702 580.477 177.498 581.18 177.09C581.882 176.659 582.381 176.036 582.676 175.22V173.35H579.038C576.862 173.35 575.774 174.064 575.774 175.492C575.774 176.172 576.034 176.716 576.556 177.124C577.1 177.509 577.836 177.702 578.766 177.702ZM603.161 163.966C604.906 163.966 606.436 164.329 607.751 165.054C609.066 165.757 610.074 166.754 610.777 168.046C611.502 169.338 611.865 170.834 611.865 172.534C611.865 174.279 611.434 175.832 610.573 177.192C609.734 178.529 608.556 179.572 607.037 180.32C605.518 181.045 603.796 181.408 601.869 181.408C598.673 181.408 596.157 180.388 594.321 178.348C592.508 176.285 591.601 173.271 591.601 169.304C591.601 165.632 592.394 162.708 593.981 160.532C595.59 158.333 598.05 156.894 601.359 156.214L610.063 154.48L610.777 159.036L603.093 160.566C601.008 160.974 599.455 161.654 598.435 162.606C597.438 163.558 596.848 164.907 596.667 166.652C597.46 165.791 598.412 165.133 599.523 164.68C600.634 164.204 601.846 163.966 603.161 163.966ZM601.903 177.294C603.263 177.294 604.351 176.852 605.167 175.968C606.006 175.084 606.425 173.962 606.425 172.602C606.425 171.219 606.006 170.12 605.167 169.304C604.351 168.488 603.263 168.08 601.903 168.08C600.52 168.08 599.41 168.488 598.571 169.304C597.732 170.12 597.313 171.219 597.313 172.602C597.313 173.985 597.744 175.118 598.605 176.002C599.466 176.863 600.566 177.294 601.903 177.294ZM633.022 174.064H630.472V181H625.236V174.064H622.686L618.81 181H612.554L618.3 171.548L612.962 162.708H618.572L622.618 169.814H625.236V162.708H630.472V169.814H633.056L637.136 162.708H642.746L637.408 171.548L643.188 181H636.898L633.022 174.064ZM663.162 171.922C663.162 171.99 663.128 172.466 663.06 173.35H649.222C649.471 174.483 650.061 175.379 650.99 176.036C651.919 176.693 653.075 177.022 654.458 177.022C655.41 177.022 656.249 176.886 656.974 176.614C657.722 176.319 658.413 175.866 659.048 175.254L661.87 178.314C660.147 180.286 657.631 181.272 654.322 181.272C652.259 181.272 650.435 180.875 648.848 180.082C647.261 179.266 646.037 178.144 645.176 176.716C644.315 175.288 643.884 173.667 643.884 171.854C643.884 170.063 644.303 168.454 645.142 167.026C646.003 165.575 647.171 164.453 648.644 163.66C650.14 162.844 651.806 162.436 653.642 162.436C655.433 162.436 657.053 162.821 658.504 163.592C659.955 164.363 661.088 165.473 661.904 166.924C662.743 168.352 663.162 170.018 663.162 171.922ZM653.676 166.448C652.475 166.448 651.466 166.788 650.65 167.468C649.834 168.148 649.335 169.077 649.154 170.256H658.164C657.983 169.1 657.484 168.182 656.668 167.502C655.852 166.799 654.855 166.448 653.676 166.448ZM667.228 162.708H672.498V169.848H680.454V162.708H685.758V181H680.454V174.166H672.498V181H667.228V162.708ZM690.835 162.708H696.105V173.588L705.013 162.708H709.875V181H704.605V170.12L695.731 181H690.835V162.708ZM731.226 162.708V181H726.5V175.764H722.59L719.122 181H713.478L717.66 175.016C716.39 174.517 715.416 173.803 714.736 172.874C714.078 171.922 713.75 170.777 713.75 169.44C713.75 167.287 714.52 165.632 716.062 164.476C717.626 163.297 719.768 162.708 722.488 162.708H731.226ZM722.59 167.026C721.456 167.026 720.595 167.23 720.006 167.638C719.439 168.046 719.156 168.703 719.156 169.61C719.156 170.517 719.428 171.185 719.972 171.616C720.538 172.024 721.388 172.228 722.522 172.228H726.5V167.026H722.59Z" fill="black"/>
</svg>
