<svg width="304" height="91" viewBox="0 0 304 91" fill="none" xmlns="http://www.w3.org/2000/svg">
<path fill-rule="evenodd" clip-rule="evenodd" d="M83.9727 48.241C80.782 68.1303 63.269 83.4322 42.2487 83.4322H41.7236L45.271 81.0059C63.261 79.9293 77.9841 66.9785 81.2309 49.9588L83.9727 48.241Z" fill="white"/>
<path fill-rule="evenodd" clip-rule="evenodd" d="M42.2491 0C62.3676 0 79.2713 14.0037 83.4841 32.6382H83.4561L81.1673 33.6199C77.3753 15.8521 61.3494 2.44609 42.2532 2.44609C20.3429 2.44609 2.47723 20.0872 2.47723 41.7181C2.47723 58.1638 12.811 72.3021 27.3978 78.1323L25.6461 80.1074C11.0593 74.0397 0.0360761 58.8684 0 41.722C0 18.7415 18.98 0 42.2491 0Z" fill="white"/>
<path fill-rule="evenodd" clip-rule="evenodd" d="M51.084 39.7153C50.9718 38.0331 50.7473 37.19 50.3144 35.5395C47.1798 23.6297 37.9082 16.806 22.5117 19.2323C36.2688 2.98834 62.9851 11.8307 68.8896 29.6262C70.2725 33.7861 70.497 36.913 69.9438 41.6033C63.6986 42.8461 57.1288 41.0373 51.084 39.7153Z" fill="white"/>
<path fill-rule="evenodd" clip-rule="evenodd" d="M22.3477 91C32.6574 80.9029 44.0054 68.0471 48.4387 54.1187C52.1465 54.3562 63.6428 52.6027 67.0299 50.873C59.6343 65.9137 40.7866 79.6126 22.3477 91Z" fill="white"/>
<path fill-rule="evenodd" clip-rule="evenodd" d="M23.2055 47.8728C19.0728 52.6423 25.7108 46.1946 34.5294 50.3268C43.4763 54.5144 71.0625 52.8243 91.0005 36.4142C68.4009 48.2488 58.3877 42.8263 48.7755 41.0847C40.3938 39.5688 32.7015 38.0449 23.2055 47.8728Z" fill="white"/>
<path d="M108.085 62.1859C109.829 62.1859 111.333 61.5779 112.357 60.4259L111.317 59.4179C110.453 60.3299 109.397 60.7619 108.165 60.7619C105.637 60.7619 103.765 58.9379 103.765 56.4579C103.765 53.9779 105.637 52.1539 108.165 52.1539C109.397 52.1539 110.453 52.5699 111.317 53.4819L112.357 52.4739C111.333 51.3219 109.829 50.7299 108.101 50.7299C104.693 50.7299 102.165 53.1459 102.165 56.4579C102.165 59.7699 104.693 62.1859 108.085 62.1859ZM113.346 62.0579H114.882V58.5059H119.714V62.0579H121.25V53.5779H119.714V57.1779H114.882V53.5779H113.346V62.0579ZM126.3 53.4979C124.94 53.4979 123.676 53.8819 122.796 54.5859L123.436 55.7379C124.092 55.1779 125.116 54.8259 126.124 54.8259C127.644 54.8259 128.396 55.5779 128.396 56.8739V57.1779H125.964C123.436 57.1779 122.556 58.2979 122.556 59.6579C122.556 61.1299 123.772 62.1539 125.692 62.1539C127.02 62.1539 127.964 61.7059 128.476 60.9379V62.0579H129.932V56.9379C129.932 54.6179 128.62 53.4979 126.3 53.4979ZM125.948 60.9699C124.78 60.9699 124.076 60.4419 124.076 59.5939C124.076 58.8739 124.508 58.2819 126.028 58.2819H128.396V59.4659C128.012 60.4419 127.1 60.9699 125.948 60.9699ZM136.058 53.8659C134.634 53.8659 133.434 54.4899 132.714 55.5779C132.874 53.3699 133.914 52.2819 136.122 51.8019L139.69 51.0339L139.466 49.6259L135.594 50.4899C132.666 51.1299 131.242 53.0339 131.242 56.5379C131.242 60.1059 132.858 62.1859 135.754 62.1859C138.346 62.1859 140.138 60.4899 140.138 57.9939C140.138 55.5619 138.458 53.8659 136.058 53.8659ZM135.786 60.9059C134.154 60.9059 132.986 59.7219 132.986 58.0419C132.986 56.3619 134.122 55.2419 135.786 55.2419C137.45 55.2419 138.57 56.3619 138.57 58.0419C138.57 59.7219 137.434 60.9059 135.786 60.9059ZM151.155 62.0579H152.979L150.067 57.6899L152.755 53.5779H151.107L148.819 57.1619H147.155V53.5779H145.619V57.1619H143.955L141.667 53.5779H140.035L142.723 57.6739L139.811 62.0579H141.635L143.971 58.4739H145.619V62.0579H147.155V58.4739H148.803L151.155 62.0579ZM161.092 57.8659C161.092 55.2579 159.348 53.4979 156.9 53.4979C154.452 53.4979 152.644 55.3059 152.644 57.8179C152.644 60.3459 154.468 62.1539 157.204 62.1539C158.612 62.1539 159.78 61.6739 160.548 60.7779L159.7 59.7859C159.076 60.4739 158.244 60.8099 157.252 60.8099C155.572 60.8099 154.372 59.8179 154.18 58.3299H161.06C161.076 58.1859 161.092 57.9939 161.092 57.8659ZM156.9 54.7939C158.388 54.7939 159.46 55.8019 159.62 57.2259H154.18C154.34 55.7859 155.428 54.7939 156.9 54.7939ZM162.515 62.0579H164.051V58.5059H168.883V62.0579H170.419V53.5779H168.883V57.1779H164.051V53.5779H162.515V62.0579ZM172.445 62.0579H173.853L179.037 55.8819V62.0579H180.573V53.5779H179.181L173.981 59.7539V53.5779H172.445V62.0579ZM190.258 57.8659C190.258 55.2579 188.514 53.4979 186.066 53.4979C183.618 53.4979 181.81 55.3059 181.81 57.8179C181.81 60.3459 183.634 62.1539 186.37 62.1539C187.778 62.1539 188.946 61.6739 189.714 60.7779L188.866 59.7859C188.242 60.4739 187.41 60.8099 186.418 60.8099C184.738 60.8099 183.538 59.8179 183.346 58.3299H190.226C190.242 58.1859 190.258 57.9939 190.258 57.8659ZM186.066 54.7939C187.554 54.7939 188.626 55.8019 188.786 57.2259H183.346C183.506 55.7859 184.594 54.7939 186.066 54.7939ZM198.65 62.1539C201.194 62.1539 203.05 60.3459 203.05 57.8179C203.05 55.2899 201.194 53.4979 198.65 53.4979C196.106 53.4979 194.234 55.2899 194.234 57.8179C194.234 60.3459 196.106 62.1539 198.65 62.1539ZM198.65 60.8099C197.018 60.8099 195.786 59.6259 195.786 57.8179C195.786 56.0099 197.018 54.8419 198.65 54.8419C200.282 54.8419 201.498 56.0099 201.498 57.8179C201.498 59.6259 200.282 60.8099 198.65 60.8099ZM208.804 53.4979C207.556 53.4979 206.468 53.9779 205.78 54.9219V53.5779H204.308V65.1619H205.844V60.7779C206.548 61.6899 207.604 62.1539 208.804 62.1539C211.284 62.1539 213.092 60.4259 213.092 57.8179C213.092 55.2259 211.284 53.4979 208.804 53.4979ZM208.676 60.8099C207.06 60.8099 205.828 59.6259 205.828 57.8179C205.828 56.0259 207.06 54.8419 208.676 54.8419C210.308 54.8419 211.54 56.0259 211.54 57.8179C211.54 59.6259 210.308 60.8099 208.676 60.8099ZM220.604 53.5779H214.364V62.0579H215.9V54.9219H220.604V53.5779ZM224.24 53.4979C222.88 53.4979 221.616 53.8819 220.736 54.5859L221.376 55.7379C222.032 55.1779 223.056 54.8259 224.064 54.8259C225.584 54.8259 226.336 55.5779 226.336 56.8739V57.1779H223.904C221.376 57.1779 220.496 58.2979 220.496 59.6579C220.496 61.1299 221.712 62.1539 223.632 62.1539C224.96 62.1539 225.904 61.7059 226.416 60.9379V62.0579H227.872V56.9379C227.872 54.6179 226.56 53.4979 224.24 53.4979ZM223.888 60.9699C222.72 60.9699 222.016 60.4419 222.016 59.5939C222.016 58.8739 222.448 58.2819 223.968 58.2819H226.336V59.4659C225.952 60.4419 225.04 60.9699 223.888 60.9699ZM229.678 62.0579H231.214V58.5059H236.046V62.0579H237.582V53.5779H236.046V57.1779H231.214V53.5779H229.678V62.0579ZM239.609 62.0579H241.017L246.201 55.8819V62.0579H247.737V53.5779H246.345L241.145 59.7539V53.5779H239.609V62.0579ZM254.21 57.6419C255.138 57.3059 255.746 56.6179 255.746 55.7699C255.746 54.3939 254.226 53.4659 252.162 53.4659C251.074 53.4659 250.018 53.6899 248.914 54.2499L249.33 55.4339C250.258 55.0019 251.138 54.7779 252.002 54.7779C253.298 54.7779 254.162 55.2259 254.162 55.9939C254.162 56.7139 253.442 57.1299 252.306 57.1299H250.866V58.2339H252.418C253.666 58.2339 254.402 58.6819 254.402 59.4659C254.402 60.3299 253.458 60.8579 252.018 60.8579C250.978 60.8579 249.858 60.5699 249.042 60.0419L248.578 61.2099C249.522 61.8179 250.77 62.1699 252.034 62.1699C254.29 62.1699 255.986 61.1299 255.986 59.5939C255.986 58.6179 255.346 57.9299 254.21 57.6419ZM260.385 53.4979C259.025 53.4979 257.761 53.8819 256.881 54.5859L257.521 55.7379C258.177 55.1779 259.201 54.8259 260.209 54.8259C261.729 54.8259 262.481 55.5779 262.481 56.8739V57.1779H260.049C257.521 57.1779 256.641 58.2979 256.641 59.6579C256.641 61.1299 257.857 62.1539 259.777 62.1539C261.105 62.1539 262.049 61.7059 262.561 60.9379V62.0579H264.017V56.9379C264.017 54.6179 262.705 53.4979 260.385 53.4979ZM260.033 60.9699C258.865 60.9699 258.161 60.4419 258.161 59.5939C258.161 58.8739 258.593 58.2819 260.113 58.2819H262.481V59.4659C262.097 60.4419 261.185 60.9699 260.033 60.9699ZM273.535 60.7139V53.5779H271.999V60.7139H267.359V53.5779H265.823V62.0579H273.423V64.0899H274.879V60.7139H273.535ZM275.909 62.0579H277.317L282.501 55.8819V62.0579H284.037V53.5779H282.645L277.445 59.7539V53.5779H275.909V62.0579ZM290.027 52.4739C291.579 52.4739 292.523 51.7059 292.555 50.2659H291.483C291.467 51.0659 290.891 51.5779 290.011 51.5779C289.147 51.5779 288.571 51.0659 288.555 50.2659H287.515C287.531 51.7059 288.475 52.4739 290.027 52.4739ZM286.059 62.0579H287.467L292.651 55.8819V62.0579H294.187V53.5779H292.795L287.595 59.7539V53.5779H286.059V62.0579Z" fill="white"/>
<path d="M107.907 23.0195C104.807 23.0195 102.257 24.1195 100.607 26.1445L103.182 28.5445C104.407 27.1695 105.907 26.4695 107.707 26.4695C110.207 26.4695 112.082 28.0195 112.657 30.4195H105.607V33.5195H112.707C112.182 36.0195 110.282 37.6695 107.707 37.6695C105.907 37.6695 104.407 36.9695 103.182 35.5945L100.607 37.9945C102.257 40.0195 104.807 41.1195 107.907 41.1195C113.157 41.1195 116.982 37.3445 116.982 32.0695C116.982 26.7945 113.157 23.0195 107.907 23.0195ZM132.503 23.3195H120.153V40.8195H124.178L124.153 26.6195H132.478L132.503 23.3195ZM134.973 40.8195H138.798L147.148 29.4445V40.8195H151.148V23.3195H147.348L138.998 34.7195V23.3195H134.973V40.8195ZM170.983 37.5195V23.3195H157.533L157.333 28.7945C157.158 33.6945 156.583 37.4445 154.308 37.5195H153.608L153.583 44.4445H157.333V40.8195H169.683V44.4445H173.433V37.5195H170.983ZM160.908 29.1695L160.983 26.6195H166.983V37.5195H159.158C160.358 36.0945 160.758 32.8945 160.908 29.1695ZM189.706 40.8195H193.956L186.131 23.3195H182.131L174.331 40.8195H178.481L180.031 37.0695H188.156L189.706 40.8195ZM181.331 33.9945L184.106 27.2945L186.881 33.9945H181.331ZM194.816 35.3445H201.891V32.2195H194.816V35.3445ZM213.782 41.1195C219.282 41.1195 223.357 37.2945 223.357 32.0695C223.357 26.8445 219.282 23.0195 213.782 23.0195C208.257 23.0195 204.207 26.8695 204.207 32.0695C204.207 37.2695 208.257 41.1195 213.782 41.1195ZM213.782 37.6695C210.657 37.6695 208.307 35.3945 208.307 32.0695C208.307 28.7445 210.657 26.4695 213.782 26.4695C216.907 26.4695 219.257 28.7445 219.257 32.0695C219.257 35.3945 216.907 37.6695 213.782 37.6695ZM239.608 23.3195H224.433V26.6195H230.008V40.8195H234.008V26.6195H239.608V23.3195ZM246.176 37.5695V33.5195H254.301V30.3695H246.176V26.5695H255.376V23.3195H242.151V40.8195H255.701V37.5695H246.176ZM261.122 23.3195L260.872 30.4195C260.697 34.8945 260.172 37.4945 258.122 37.4945C257.872 37.4945 257.647 37.4695 257.397 37.3945L257.147 40.8195C257.897 40.9945 258.547 41.0945 259.147 41.0945C263.247 41.0945 264.222 37.1445 264.447 30.2695L264.572 26.6195H270.572V40.8195H274.572V23.3195H261.122ZM287.418 29.0695H282.968V23.3195H278.943V40.8195H286.843C291.343 40.8195 294.043 38.7445 294.043 34.7195C294.043 30.9445 291.643 29.0695 287.418 29.0695ZM286.618 37.8195H282.968V32.0695H286.618C288.718 32.0695 289.968 32.8695 289.968 34.7945C289.968 36.7695 288.693 37.8195 286.618 37.8195Z" fill="white"/>
</svg>
