<svg width="228" height="230" viewBox="0 0 228 230" fill="none" xmlns="http://www.w3.org/2000/svg">
<path fill-rule="evenodd" clip-rule="evenodd" d="M209.49 121.88C201.53 172.13 157.84 210.79 105.4 210.79H104.09L112.94 204.66C157.82 201.94 194.55 169.22 202.65 126.22L209.49 121.88Z" fill="#244ED5"/>
<path fill-rule="evenodd" clip-rule="evenodd" d="M105.4 0C155.59 0 197.76 35.38 208.27 82.46H208.2L202.49 84.94C193.03 40.05 153.05 6.18 105.41 6.18C50.75 6.18 6.18 50.75 6.18 105.4C6.18 146.95 31.96 182.67 68.35 197.4L63.98 202.39C27.59 187.06 0.09 148.73 0 105.41C0 47.35 47.35 0 105.4 0Z" fill="#244ED5"/>
<path fill-rule="evenodd" clip-rule="evenodd" d="M127.44 100.34C127.16 96.09 126.6 93.96 125.52 89.79C117.7 59.7 94.57 42.46 56.16 48.59C90.48 7.54993 157.13 29.89 171.86 74.85C175.31 85.36 175.87 93.26 174.49 105.11C158.91 108.25 142.52 103.68 127.44 100.34Z" fill="#244ED5"/>
<path fill-rule="evenodd" clip-rule="evenodd" d="M55.75 229.91C81.47 204.4 109.78 171.92 120.84 136.73C130.09 137.33 158.77 132.9 167.22 128.53C148.77 166.53 101.75 201.14 55.75 229.91Z" fill="#244ED5"/>
<path fill-rule="evenodd" clip-rule="evenodd" d="M57.89 120.95C47.58 133 64.14 116.71 86.14 127.15C108.46 137.73 177.28 133.46 227.02 92C170.64 121.9 145.66 108.2 121.68 103.8C100.77 99.97 81.58 96.12 57.89 120.95Z" fill="#244ED5"/>
</svg>
