<svg width="66" height="66" viewBox="0 0 66 66" fill="none" xmlns="http://www.w3.org/2000/svg">
<g clip-path="url(#clip0)">
<path fill-rule="evenodd" clip-rule="evenodd" d="M60.7703 34.988C58.4613 49.4132 45.7874 60.5113 30.5753 60.5113H30.1953L32.7625 58.7516C45.7816 57.9708 56.4365 48.5779 58.7861 36.2339L60.7703 34.988Z" fill="white"/>
<path fill-rule="evenodd" clip-rule="evenodd" d="M30.575 0C45.1344 0 57.3674 10.1565 60.4161 23.6717H60.3959L58.7395 24.3837C55.9953 11.4971 44.3976 1.77409 30.578 1.77409C14.7218 1.77409 1.79273 14.5687 1.79273 30.2571C1.79273 42.1847 9.27112 52.4389 19.8274 56.6674L18.5597 58.0999C8.00344 53.6991 0.0261077 42.6958 0 30.2599C0 13.5927 13.7355 0 30.575 0Z" fill="white"/>
<path fill-rule="evenodd" clip-rule="evenodd" d="M36.9683 28.8045C36.8871 27.5845 36.7247 26.973 36.4114 25.7759C34.1429 17.138 27.4332 12.189 16.291 13.9487C26.2468 2.16738 45.581 8.58051 49.854 21.4871C50.8548 24.5042 51.0172 26.7721 50.6169 30.1738C46.0973 31.0752 41.3429 29.7633 36.9683 28.8045Z" fill="white"/>
<path fill-rule="evenodd" clip-rule="evenodd" d="M16.1719 65.9999C23.6328 58.6768 31.8452 49.3528 35.0535 39.2509C37.7368 39.4231 46.0565 38.1514 48.5077 36.8969C43.1556 47.8055 29.5158 57.741 16.1719 65.9999Z" fill="white"/>
<path fill-rule="evenodd" clip-rule="evenodd" d="M16.7934 34.7209C13.8026 38.1801 18.6064 33.5038 24.9883 36.5007C31.463 39.5379 51.4267 38.3121 65.8555 26.4103C49.5005 34.9936 42.2542 31.0608 35.298 29.7977C29.2323 28.6982 23.6655 27.593 16.7934 34.7209Z" fill="white"/>
</g>
</svg>
