<svg width="220" height="66" viewBox="0 0 220 66" fill="none" xmlns="http://www.w3.org/2000/svg">
<g clip-path="url(#clip0)">
<path fill-rule="evenodd" clip-rule="evenodd" d="M60.7703 34.988C58.4613 49.4132 45.7874 60.5113 30.5753 60.5113H30.1953L32.7625 58.7516C45.7816 57.9708 56.4365 48.5779 58.7861 36.2339L60.7703 34.988Z" fill="#ffffff"/>
<path fill-rule="evenodd" clip-rule="evenodd" d="M30.575 0C45.1344 0 57.3674 10.1565 60.4161 23.6717H60.3959L58.7395 24.3837C55.9953 11.4971 44.3976 1.77409 30.578 1.77409C14.7218 1.77409 1.79273 14.5687 1.79273 30.2571C1.79273 42.1847 9.27112 52.4389 19.8274 56.6674L18.5597 58.0999C8.00344 53.6991 0.0261077 42.6958 0 30.2599C0 13.5927 13.7355 0 30.575 0Z" fill="#ffffff"/>
<path fill-rule="evenodd" clip-rule="evenodd" d="M36.9683 28.8045C36.8871 27.5845 36.7247 26.973 36.4114 25.7759C34.1429 17.138 27.4332 12.189 16.291 13.9487C26.2468 2.16738 45.581 8.58051 49.854 21.4871C50.8548 24.5042 51.0172 26.7721 50.6169 30.1738C46.0973 31.0752 41.3429 29.7633 36.9683 28.8045Z" fill="#ffffff"/>
<path fill-rule="evenodd" clip-rule="evenodd" d="M16.1719 65.9999C23.6328 58.6768 31.8452 49.3528 35.0535 39.2509C37.7368 39.4231 46.0565 38.1514 48.5077 36.8969C43.1556 47.8055 29.5158 57.741 16.1719 65.9999Z" fill="#ffffff"/>
<path fill-rule="evenodd" clip-rule="evenodd" d="M16.7934 34.7209C13.8026 38.1801 18.6064 33.5038 24.9883 36.5007C31.463 39.5379 51.4267 38.3121 65.8555 26.4103C49.5005 34.9936 42.2542 31.0608 35.298 29.7977C29.2323 28.6982 23.6655 27.593 16.7934 34.7209Z" fill="#ffffff"/>
<path d="M79.816 36.6H74.308V45H75.496L75.484 37.644H79.804L79.816 36.6ZM79.7545 38.64L79.6465 40.992C79.5625 42.492 79.5145 44.052 78.4825 44.052C78.3985 44.052 78.3025 44.04 78.1945 44.016L78.1225 44.988C78.3865 45.06 78.6145 45.096 78.8305 45.096C80.2705 45.096 80.5705 43.308 80.6785 41.064L80.7505 39.648H83.4865V45H84.6385V38.64H79.7545ZM89.134 38.58C88.114 38.58 87.166 38.868 86.506 39.396L86.986 40.26C87.478 39.84 88.246 39.576 89.002 39.576C90.142 39.576 90.706 40.14 90.706 41.112V41.34H88.882C86.986 41.34 86.326 42.18 86.326 43.2C86.326 44.304 87.238 45.072 88.678 45.072C89.674 45.072 90.382 44.736 90.766 44.16V45H91.858V41.16C91.858 39.42 90.874 38.58 89.134 38.58ZM88.87 44.184C87.994 44.184 87.466 43.788 87.466 43.152C87.466 42.612 87.79 42.168 88.93 42.168H90.706V43.056C90.418 43.788 89.734 44.184 88.87 44.184ZM98.2644 41.7C98.9004 41.448 99.2844 40.956 99.2844 40.272C99.2844 39.228 98.3844 38.64 96.8844 38.64H93.9324V45H96.9924C98.6844 45 99.5004 44.352 99.5004 43.248C99.5004 42.444 99.1044 41.916 98.2644 41.7ZM95.0604 39.528H96.7884C97.6644 39.528 98.1324 39.828 98.1324 40.44C98.1324 41.052 97.6644 41.376 96.7884 41.376H95.0604V39.528ZM96.9084 44.112H95.0604V42.204H96.9804C97.9284 42.204 98.3484 42.516 98.3484 43.176C98.3484 43.824 97.8564 44.112 96.9084 44.112ZM101.304 45H102.456V42.336H106.08V45H107.232V38.64H106.08V41.34H102.456V38.64H101.304V45ZM111.739 38.58C110.719 38.58 109.771 38.868 109.111 39.396L109.591 40.26C110.083 39.84 110.851 39.576 111.607 39.576C112.747 39.576 113.311 40.14 113.311 41.112V41.34H111.487C109.591 41.34 108.931 42.18 108.931 43.2C108.931 44.304 109.843 45.072 111.283 45.072C112.279 45.072 112.987 44.736 113.371 44.16V45H114.463V41.16C114.463 39.42 113.479 38.58 111.739 38.58ZM111.475 44.184C110.599 44.184 110.071 43.788 110.071 43.152C110.071 42.612 110.395 42.168 111.535 42.168H113.311V43.056C113.023 43.788 112.339 44.184 111.475 44.184ZM118.854 38.64C117.15 38.64 116.058 39.396 116.058 40.872C116.058 41.88 116.598 42.54 117.546 42.828L115.998 45H117.234L118.626 42.984H118.758H120.606V45H121.638V38.64H118.854ZM117.234 40.908C117.234 40.02 117.834 39.648 118.89 39.648H120.606V42.156H118.842C117.774 42.156 117.234 41.76 117.234 40.908ZM129.88 45.072C131.02 45.072 131.968 44.592 132.472 43.704L131.596 43.152C131.188 43.776 130.564 44.064 129.868 44.064C128.62 44.064 127.684 43.2 127.684 41.82C127.684 40.464 128.62 39.588 129.868 39.588C130.564 39.588 131.188 39.876 131.596 40.5L132.472 39.936C131.968 39.048 131.02 38.58 129.88 38.58C127.924 38.58 126.52 39.924 126.52 41.82C126.52 43.716 127.924 45.072 129.88 45.072ZM138.622 38.64H132.814V39.648H135.142V45H136.294V39.648H138.622V38.64ZM143.172 38.58C142.236 38.58 141.42 38.94 140.904 39.648V38.64H139.8V47.328H140.952V44.04C141.48 44.724 142.272 45.072 143.172 45.072C145.032 45.072 146.388 43.776 146.388 41.82C146.388 39.876 145.032 38.58 143.172 38.58ZM143.076 44.064C141.864 44.064 140.94 43.176 140.94 41.82C140.94 40.476 141.864 39.588 143.076 39.588C144.3 39.588 145.224 40.476 145.224 41.82C145.224 43.176 144.3 44.064 143.076 44.064ZM150.271 38.58C149.251 38.58 148.303 38.868 147.643 39.396L148.123 40.26C148.615 39.84 149.383 39.576 150.139 39.576C151.279 39.576 151.843 40.14 151.843 41.112V41.34H150.019C148.123 41.34 147.463 42.18 147.463 43.2C147.463 44.304 148.375 45.072 149.815 45.072C150.811 45.072 151.519 44.736 151.903 44.16V45H152.995V41.16C152.995 39.42 152.011 38.58 150.271 38.58ZM150.007 44.184C149.131 44.184 148.603 43.788 148.603 43.152C148.603 42.612 148.927 42.168 150.067 42.168H151.843V43.056C151.555 43.788 150.871 44.184 150.007 44.184ZM155.069 45H156.221V42.336H159.845V45H160.997V38.64H159.845V41.34H156.221V38.64H155.069V45ZM163.237 45H164.293L168.181 40.368V45H169.333V38.64H168.289L164.389 43.272V38.64H163.237V45ZM177.353 43.992V38.64H176.201V43.992H172.721V38.64H171.569V45H177.269V46.524H178.361V43.992H177.353ZM182.122 38.58C181.102 38.58 180.154 38.868 179.494 39.396L179.974 40.26C180.466 39.84 181.234 39.576 181.99 39.576C183.13 39.576 183.694 40.14 183.694 41.112V41.34H181.87C179.974 41.34 179.314 42.18 179.314 43.2C179.314 44.304 180.226 45.072 181.666 45.072C182.662 45.072 183.37 44.736 183.754 44.16V45H184.846V41.16C184.846 39.42 183.862 38.58 182.122 38.58ZM181.858 44.184C180.982 44.184 180.454 43.788 180.454 43.152C180.454 42.612 180.778 42.168 181.918 42.168H183.694V43.056C183.406 43.788 182.722 44.184 181.858 44.184Z" fill="#ffffff"/>
<path d="M78.0905 16.6954C75.8471 16.6954 74.0017 17.4932 72.8076 18.9619L74.6711 20.7026C75.5576 19.7053 76.6431 19.1976 77.9458 19.1976C79.755 19.1976 81.1119 20.3218 81.528 22.0625H76.426V24.3108H81.5642C81.1843 26.124 79.8093 27.3207 77.9458 27.3207C76.6431 27.3207 75.5576 26.813 74.6711 25.8158L72.8076 27.5564C74.0017 29.0251 75.8471 29.8229 78.0905 29.8229C81.8899 29.8229 84.6579 27.085 84.6579 23.2592C84.6579 19.4333 81.8899 16.6954 78.0905 16.6954ZM95.8903 16.913H86.9527V29.6053H89.8656L89.8475 19.3064H95.8722L95.8903 16.913ZM97.6778 29.6053H100.446L106.489 21.3553V29.6053H109.383V16.913H106.633L100.591 25.1812V16.913H97.6778V29.6053ZM123.738 27.2119V16.913H114.004L113.859 20.8839C113.733 24.4377 113.317 27.1575 111.67 27.2119H111.164L111.146 32.2344H113.859V29.6053H122.797V32.2344H125.511V27.2119H123.738ZM116.447 21.1559L116.501 19.3064H120.843V27.2119H115.18C116.048 26.1784 116.338 23.8575 116.447 21.1559ZM137.287 29.6053H140.363L134.7 16.913H131.805L126.161 29.6053H129.164L130.286 26.8855H136.165L137.287 29.6053ZM131.226 24.6553L133.235 19.796L135.243 24.6553H131.226ZM140.985 25.6344H146.105V23.368H140.985V25.6344ZM154.711 29.8229C158.691 29.8229 161.64 27.0487 161.64 23.2592C161.64 19.4696 158.691 16.6954 154.711 16.6954C150.712 16.6954 147.781 19.4877 147.781 23.2592C147.781 27.0306 150.712 29.8229 154.711 29.8229ZM154.711 27.3207C152.449 27.3207 150.748 25.6707 150.748 23.2592C150.748 20.8476 152.449 19.1976 154.711 19.1976C156.972 19.1976 158.673 20.8476 158.673 23.2592C158.673 25.6707 156.972 27.3207 154.711 27.3207ZM173.4 16.913H162.419V19.3064H166.453V29.6053H169.348V19.3064H173.4V16.913ZM178.154 27.2482V24.3108H184.034V22.0262H178.154V19.2702H184.812V16.913H175.241V29.6053H185.047V27.2482H178.154ZM188.97 16.913L188.789 22.0625C188.662 25.3081 188.282 27.1938 186.799 27.1938C186.618 27.1938 186.455 27.1757 186.274 27.1213L186.093 29.6053C186.636 29.7322 187.106 29.8048 187.541 29.8048C190.508 29.8048 191.213 26.9399 191.376 21.9537L191.467 19.3064H195.809V29.6053H198.703V16.913H188.97ZM208 21.0833H204.779V16.913H201.867V29.6053H207.584C210.84 29.6053 212.794 28.1004 212.794 25.1812C212.794 22.4432 211.057 21.0833 208 21.0833ZM207.421 27.4295H204.779V23.2592H207.421C208.941 23.2592 209.845 23.8394 209.845 25.2355C209.845 26.668 208.923 27.4295 207.421 27.4295Z" fill="#ffffff"/>
</g>
<defs>
<clipPath id="clip0">
<rect width="220" height="66" fill="white"/>
</clipPath>
</defs>
</svg>
