<svg id="Layer_1" enable-background="new 0 0 128 128" height="128" viewBox="0 0 128 128" width="128" xmlns="http://www.w3.org/2000/svg"><g><path d="m105.5 59.6c-.3-2.2-1.4-4.1-3.2-5.4-3.6-2.7-8.8-2-11.5 1.6l-1.2 1.6v-25.9c0-.5-.2-.9-.5-1.2l-10.7-10.7c-.3-.3-.8-.5-1.2-.5h-53c-1 0-1.8.8-1.8 1.8v86.3c0 1 .8 1.8 1.8 1.8h63.7c1 0 1.8-.8 1.8-1.8v-22.5l14.3-19c1.2-1.8 1.8-4 1.5-6.1zm-26.6-34.5 4.7 4.7h-4.7zm7.2 80.3h-60.2v-82.8h49.5v8.9c0 1 .8 1.8 1.8 1.8h8.9v28.7l-16.2 21.6c-.2.2-.3.8-.3.8s-1.7 10.3-2.2 13.7c-.3 1.7 1.5 2.3 2.5 1.9 3.1-1.5 12.5-5.9 12.5-5.9s.5-.3.7-.5l3.1-4.1zm-13.6-17.6 5.7 4.3-6.9 3.3zm28.6-24.2-19.9 26.4-7.5-5.7 19.9-26.4c1.6-2.1 4.5-2.5 6.6-.9 2.1 1.5 2.5 4.5.9 6.6z"/><path d="m39.8 37.3c-3.2 0-5.9 2.6-5.9 5.9s2.6 5.9 5.9 5.9 5.9-2.6 5.9-5.9-2.6-5.9-5.9-5.9zm0 8.2c-1.3 0-2.4-1.1-2.4-2.4s1.1-2.4 2.4-2.4 2.4 1.1 2.4 2.4-1.1 2.4-2.4 2.4z"/><path d="m51.3 44.9h25c1 0 1.8-.8 1.8-1.8s-.8-1.8-1.8-1.8h-25c-1 0-1.8.8-1.8 1.8s.9 1.8 1.8 1.8z"/><path d="m39.8 54c-3.2 0-5.9 2.6-5.9 5.9s2.6 5.9 5.9 5.9 5.9-2.6 5.9-5.9-2.6-5.9-5.9-5.9zm0 8.3c-1.3 0-2.4-1.1-2.4-2.4s1.1-2.4 2.4-2.4 2.4 1.1 2.4 2.4c0 1.3-1.1 2.3-2.4 2.4z"/><path d="m51.3 61.6h25c1 0 1.8-.8 1.8-1.8s-.8-1.8-1.8-1.8h-25c-1 0-1.8.8-1.8 1.8s.9 1.8 1.8 1.8z"/><path d="m39.8 70.8c-3.2 0-5.9 2.6-5.9 5.9s2.6 5.9 5.9 5.9 5.9-2.6 5.9-5.9-2.6-5.9-5.9-5.9zm0 8.2c-1.3 0-2.4-1.1-2.4-2.4s1.1-2.4 2.4-2.4 2.4 1.1 2.4 2.4-1.1 2.4-2.4 2.4z"/><path d="m51.3 78.4h16c1 0 1.8-.8 1.8-1.8s-.8-1.8-1.8-1.8h-16c-1 0-1.8.8-1.8 1.8s.9 1.8 1.8 1.8z"/><path d="m39.8 87.5c-3.2 0-5.9 2.6-5.9 5.9s2.6 5.9 5.9 5.9 5.9-2.6 5.9-5.9c0-3.3-2.6-5.9-5.9-5.9zm0 8.3c-1.3 0-2.4-1.1-2.4-2.4s1.1-2.4 2.4-2.4 2.4 1.1 2.4 2.4-1.1 2.3-2.4 2.4z"/><path d="m61.4 91.6h-10c-1 0-1.8.8-1.8 1.8s.8 1.8 1.8 1.8h10c1 0 1.8-.8 1.8-1.8s-.9-1.8-1.8-1.8z"/></g></svg>